<svg xmlns="http://www.w3.org/2000/svg" viewBox="0 0 720 960" role="img" aria-label="Romantic wedding stage">
  <rect width="720" height="960" fill="#fff7fb"/>
  <path d="M0 760h720v200H0z" fill="#ffe1ed"/>
  <g fill="none" stroke="#f05f9f" stroke-width="8" opacity=".45">
    <path d="M100 760V250c180-120 340-120 520 0v510"/>
    <path d="M170 760V322c128-84 252-84 380 0v438"/>
    <path d="M246 760V406c78-52 150-52 228 0v354"/>
  </g>
  <path d="M360 228c-38-42-106-14-106 42 0 66 106 116 106 116s106-50 106-116c0-56-68-84-106-42z" fill="#ff9ec8" opacity=".62"/>
</svg>
